<svg xmlns="http://www.w3.org/2000/svg" xmlns:xlink="http://www.w3.org/1999/xlink" version="1.1" x="0px" y="0px" viewBox="0 0 100 100" style="enable-background:new 0 0 100 100;" xml:space="preserve"><symbol viewBox="-9.858 -9.858 19.716 19.716"><path style="" d="M8.573,0c0-4.735-3.838-8.573-8.573-8.573   S-8.573-4.735-8.573,0c0,4.735,3.838,8.573,8.573,8.573S8.573,4.735,8.573,0z" fill="none" stroke="#592F37" stroke-width="2.5699" stroke-miterlimit="10"/><path style="" d="M2.858,0c0-1.578-1.279-2.858-2.858-2.858   c-1.578,0-2.858,1.279-2.858,2.858c0,1.578,1.279,2.858,2.858,2.858C1.578,2.858,2.858,1.578,2.858,0z" fill="none" stroke="#592F37" stroke-width="2.5699" stroke-miterlimit="10"/></symbol><symbol viewBox="-4.525 -15.49 9.051 30.981"><path style="" d="M4.526-15.49h-9.051v30.981h1.559c4.138,0,7.492-3.354,7.492-7.492V-15.49z" fill="#FFFFFF"/></symbol><g style="" display="none"><rect x="-362.374" y="-53.377" style="" width="1328.933" height="1233.377" display="inline" fill="#FFCCCC"/></g><g><path d="M50,95c24.86,0,45-20.15,45-45C95,25.15,74.86,5,50,5C25.15,5,5,25.15,5,50C5,74.85,25.15,95,50,95z M73.98,59.79   c0,6.86-2.96,13.16-7.77,17.56c-4.17,3.81-9.71,5.75-15.36,5.75h-9.47c6.15-4.52,10.28-11.28,11.47-18.8   c8.14-0.69,15.6-4.87,20.5-11.36c0.21-0.27,0.63-0.14,0.63,0.2V59.79z M32.21,20.68c4.47-5.42,11.1-8.58,18.19-8.58   c7.08,0,13.71,3.16,18.18,8.58c0.12,0.15-0.03,0.36-0.21,0.3c-1.59-0.53-3.26-0.81-4.94-0.81c-5.03,0-9.75,2.48-12.64,6.57   c-0.2,0.27-0.59,0.27-0.79,0c-2.89-4.09-7.61-6.57-12.64-6.57c-1.68,0-3.35,0.28-4.93,0.81C32.24,21.04,32.09,20.83,32.21,20.68z    M37.36,25.32c5.77,0,10.46,4.65,10.46,10.36v11.47h5.15V35.68c0-5.71,4.7-10.36,10.46-10.36c5.72,0,10.55,4.75,10.55,10.36   c0,13-10.58,23.58-23.58,23.58c-13.01,0-23.59-10.58-23.59-23.58C26.81,30.07,31.64,25.32,37.36,25.32z M26.81,53.14   c0-0.34,0.42-0.47,0.63-0.2c4.83,6.4,12.17,10.56,20.18,11.33c-1.6,8.35-7.62,15.21-15.54,17.97c-1.68,0.59-3.46,0.86-5.24,0.86   h-0.03V53.14z"/><path d="M37.424,40.817h4.182h0.5v-0.5v-4.182c0-2.166-1.762-3.928-3.927-3.928h-4.182h-0.5v0.5v4.182   C33.496,39.055,35.258,40.817,37.424,40.817z"/><path d="M63.367,40.817c2.166,0,3.928-1.762,3.928-3.928v-4.182v-0.5h-0.5h-4.182c-2.166,0-3.927,1.762-3.927,3.928v4.182v0.5h0.5   H63.367z"/></g></svg>
